<svg viewBox="0 0 40 40" fill="none" xmlns="http://www.w3.org/2000/svg">
    <rect width="40" height="40" fill="#4A4F55" />
    <g clip-path="url(#clip0_1035_67255)">
        <path
            d="M19.7767 26.9502C19.127 27.8809 18.2204 28.5767 17.057 29.0376C15.8936 29.4985 14.5393 29.7292 12.9941 29.7296C11.4312 29.7296 10.044 29.363 8.83232 28.6299C7.60952 27.8845 6.63201 26.797 6.02063 25.5019C5.35775 24.1498 5.01754 22.5826 5 20.8002V19.1276C5 16.2389 5.67399 14 7.02197 12.4107C8.36995 10.8215 10.2643 10.0269 12.705 10.0269C14.7069 10.0269 16.318 10.5383 17.5384 11.5612C18.7588 12.584 19.5051 14.0349 19.7774 15.9139H17.2481C16.774 13.3677 15.2638 12.0946 12.7175 12.0946C11.0229 12.0946 9.73883 12.6899 8.86517 13.8807C7.99152 15.0714 7.55032 16.796 7.54159 19.0545V20.623C7.54159 22.776 8.0333 24.4873 9.01671 25.7571C10.0001 27.0269 11.3303 27.6618 13.0072 27.6618C13.8477 27.6759 14.686 27.5697 15.4964 27.3464C16.1705 27.1587 16.7807 26.7908 17.2613 26.2822V21.9856H12.8228V19.9176H19.7767V26.9502ZM22.9639 22.2089C22.9639 20.8128 23.2383 19.5572 23.7871 18.4422C24.2884 17.3803 25.0837 16.4845 26.0787 15.8608C27.0874 15.2468 28.2498 14.9316 29.4305 14.9521C31.3709 14.9521 32.9404 15.6238 34.1388 16.9672C35.3373 18.3106 35.9366 20.0975 35.9366 22.3279V22.4991C35.9366 23.8864 35.671 25.1309 35.1397 26.2328C34.6452 27.2934 33.8538 28.1878 32.8613 28.8076C31.8733 29.4223 30.7385 29.7296 29.4568 29.7296C27.5253 29.7296 25.9602 29.0579 24.7616 27.7145C23.5631 26.3711 22.9638 24.5931 22.9639 22.3805V22.2089ZM25.4131 22.4991C25.4131 24.0795 25.7797 25.3483 26.5128 26.3053C27.2459 27.2624 28.2271 27.7411 29.4564 27.7414C30.6944 27.7414 31.6778 27.2563 32.4065 26.286C33.1353 25.3158 33.4996 23.9571 33.4996 22.2098C33.4996 20.6469 33.1287 19.3804 32.3867 18.4102C31.6448 17.4401 30.6594 16.9548 29.4305 16.9544C28.8655 16.9409 28.3055 17.0644 27.7986 17.3145C27.2918 17.5646 26.853 17.9338 26.5199 18.3905C25.7821 19.3472 25.4131 20.7167 25.4131 22.4991ZM25.0971 11.4032C25.086 11.036 25.2156 10.6785 25.4593 10.4037C25.7008 10.1346 26.0586 10 26.5327 10C27.0068 10 27.3668 10.1346 27.6126 10.4037C27.86 10.6767 27.9922 11.0349 27.9814 11.4032C27.9929 11.7695 27.8605 12.1257 27.6126 12.3956C27.3668 12.6602 27.0068 12.7925 26.5327 12.7925C26.0586 12.7925 25.7008 12.6602 25.4593 12.3956C25.2153 12.1238 25.0856 11.7683 25.0974 11.4032H25.0971ZM30.7603 11.4295C30.7501 11.0607 30.8795 10.7016 31.1226 10.4239C31.364 10.1504 31.7218 10.0137 32.1959 10.0137C32.67 10.0137 33.03 10.1504 33.2758 10.4239C33.5226 10.6998 33.6546 11.0596 33.6446 11.4296C33.6562 11.7959 33.5238 12.1521 33.2758 12.422C33.03 12.6866 32.67 12.8189 32.1959 12.8189C31.7218 12.8189 31.364 12.6866 31.1226 12.422C30.8784 12.1501 30.7488 11.7945 30.7607 11.4293L30.7603 11.4295Z"
            fill="white" />
    </g>
    <defs>
        <clipPath id="clip0_1035_67255">
            <rect width="30.9368" height="19.729" fill="white" transform="translate(5 10)" />
        </clipPath>
    </defs>
</svg>